<svg id="dce66d47-c519-4351-85cd-7baf8133976c" data-name="Layer 1" xmlns="http://www.w3.org/2000/svg" viewBox="0 0 30.167 30.25"><title>1</title><polygon id="668891a7-b21b-4193-a96b-b83f8c7ec52f" data-name="&lt;Path&gt;" points="0.167 15.474 0.167 30.166 7.167 30.166 7.167 14.293 7.167 10.167 0.167 10.167 0.167 15.474" fill="#ffffff"/><circle id="53508eb2-976f-4ec1-a9bf-90cb3aac6ce5" data-name="&lt;Path&gt;" cx="3.667" cy="3.667" r="3.5" fill="#ffffff"/><path id="a9db8899-3ec9-4671-a495-42e6062090e7" data-name="&lt;Path&gt;" d="M30.013,16.307c-0.474-3.769-2.205-6.14-7.3-6.14-3.023,0-5.053,1.123-5.882,2.7H16.743v-2.7H11.167v20H17V20.254c0-2.615.494-5.145,3.727-5.145,3.186,0,3.443,2.989,3.443,5.314v9.744h6V19.176h0A23.269,23.269,0,0,0,30.013,16.307Z" fill="#ffffff"/></svg>