<svg id="98c8d186-b5df-4304-b25c-3203fce7cf30" data-name="Layer 1" xmlns="http://www.w3.org/2000/svg" viewBox="0 0 39.083 28.566"><title>1</title><path d="M38.6,6.139s-0.378-2.791-1.54-4.019A5.437,5.437,0,0,0,33.174.407C27.739,0,19.593,0,19.593,0H19.575S11.424,0,5.994.409A5.425,5.425,0,0,0,2.1,2.122C0.943,3.35.563,6.141,0.563,6.141a63.574,63.574,0,0,0-.389,6.55V15.76a63.631,63.631,0,0,0,.389,6.553S0.943,25.1,2.1,26.33c1.479,1.613,3.421,1.561,4.282,1.728,3.106,0.31,13.2.407,13.2,0.407s8.155-.015,13.591-0.422a5.428,5.428,0,0,0,3.888-1.716c1.162-1.227,1.54-4.016,1.54-4.016a63.407,63.407,0,0,0,.39-6.552V12.691A63.42,63.42,0,0,0,38.6,6.139ZM26.061,13.819L15.577,19.484l0-8.721V8.112L20.3,10.685Z" fill="#ffffff"/></svg>