<?xml version="1.0" encoding="UTF-8" standalone="no"?>
<!DOCTYPE svg PUBLIC "-//W3C//DTD SVG 1.1//EN"
"http://www.w3.org/Graphics/SVG/1.1/DTD/svg11.dtd">


<!-- Page 1 -->
<svg x="0" y="0" width="485" height="132" viewBox="0 0 485 132" version="1.1" xmlns="http://www.w3.org/2000/svg" xmlns:xlink="http://www.w3.org/1999/xlink">
<defs>

<style type="text/css"><![CDATA[

.g4_1{
fill: #FFFFFF;
}


]]></style>

</defs>
<path d="M28.2,86.6L30.4,73.7l1.5,0c2.6,2.3,5.9,4,9.3,5.3c3.4,1.2,7,1.8,10.9,1.8c10.7,0,14.5,-8.5,5.3,-10.4C50,68.8,44.9,68.3,39.6,65C30.8,59.6,33.5,46.8,41.4,40.9c4.9,-3.7,10.2,-6,18.5,-6.3c6.7,-0.2,15.8,1.1,21.6,3.7L79.3,50.9l-1.4,0C70.3,44.1,59.7,42.7,52.2,46.5c-1.9,1,-2.8,2.5,-2.7,4.3c0.2,3.5,3.9,3.7,6.8,4.4c4.1,1.1,13.1,2,17.7,6c8.6,7.5,1.8,20,-4.8,24.2c-6.3,3.9,-12.9,5.5,-20,5.5C41.9,91,34.9,89.6,28.2,86.6m117.7,0l2.2,-12.9l1.5,0c2.6,2.3,5.9,4,9.3,5.3c3.4,1.2,7,1.8,10.9,1.8c10.7,0,14.5,-8.5,5.3,-10.4C167.6,68.8,162.6,68.3,157.3,65c-8.8,-5.4,-6.1,-18.2,1.8,-24.1c4.9,-3.7,10.2,-6,18.5,-6.3c6.7,-0.2,15.8,1.1,21.6,3.7L197,50.9l-1.4,0C188,44.1,177.4,42.7,169.9,46.5c-1.9,1,-2.8,2.5,-2.7,4.3c0.2,3.5,3.9,3.7,6.8,4.4c4.1,1.1,13.1,2,17.7,6c8.6,7.5,1.8,20,-4.8,24.2c-6.3,3.9,-12.9,5.5,-20,5.5c-7.3,0.1,-14.3,-1.3,-21,-4.3M427.7,35.9l-1.9,10.2l-25.1,0l-1.8,9.6l23.3,0L420.3,66l-23.4,0l-2.5,13.6l25.1,0l-1.8,10.2l-39.1,0L388.7,35.9Zm-78.9,55c-7.3,0,-13,-1.8,-17,-5.4c-4.1,-3.6,-6.2,-8.7,-6.4,-15.4C325.3,64.8,326,60,327.7,55.7c1.6,-4.3,3.9,-8,6.9,-11.2c2.9,-3,6.4,-5.4,10.6,-7.1c4.1,-1.7,8.5,-2.6,13.1,-2.6c3.7,0,7.2,0.4,10.4,1.2c3.2,0.7,6.1,1.9,8.7,3.3l-2.8,13.1l-1.6,0c-2.4,-2.5,-4.7,-4.3,-7,-5.4c-2.3,-1.2,-5,-1.8,-8.1,-1.8c-5.3,0,-9.7,2.2,-13.1,6.5c-3.4,4.3,-5,9.8,-4.8,16.5c0.1,4.3,1.2,7.4,3.2,9.4c1.9,1.9,4.8,2.9,8.5,2.9c3.4,0,6.5,-0.7,9.3,-2c2.9,-1.4,5.6,-3.1,8.2,-5.2l1.4,0l-2.8,12.9c-1,0.5,-2.3,1,-3.7,1.6c-1.5,0.6,-2.8,1.1,-4.1,1.5c-1.8,0.5,-3.4,0.9,-4.9,1.2c-1.5,0.2,-3.6,0.4,-6.3,0.4M315.6,89.8l-14.1,0l-1.8,-11l-19.8,0l-5.7,11l-14.5,0L289,35.9l16.1,0ZM298.1,69.1L294.9,49.8L284.8,69.1ZM260.4,35.9l-9.7,53.9l-14,0L241,66l-20.5,0l-4.3,23.8l-14,0L212,35.9l14,0l-3.6,19.8l20.4,0l3.6,-19.8ZM142.8,56c0.1,4.4,-0.6,8.7,-2.1,13c-1.4,4.3,-3.5,8,-6.3,11.2c-3.1,3.5,-6.7,6.1,-10.8,8c-4.1,1.8,-8.9,2.7,-14.3,2.7C101.9,90.9,96.1,89,91.9,85.2c-4.2,-3.8,-6.3,-9,-6.4,-15.7c-0.1,-4.7,0.6,-9.1,2.2,-13.3c1.5,-4.3,3.7,-8,6.6,-11.2c2.9,-3.1,6.4,-5.6,10.7,-7.5c4.2,-1.8,8.9,-2.7,13.9,-2.7c7.4,0,13.2,1.9,17.4,5.7c4.3,3.8,6.4,9,6.5,15.5M123.2,74.3c1.6,-2.1,2.8,-4.6,3.7,-7.4c0.9,-2.9,1.3,-6.1,1.3,-9.8c-0.1,-3.9,-1,-6.9,-2.9,-9.1c-1.9,-2.2,-4.5,-3.3,-8,-3.3c-2.2,0,-4.3,0.5,-6.4,1.6c-2,1,-3.9,2.6,-5.5,4.6c-1.7,2.1,-3,4.5,-4,7.5c-0.9,3,-1.4,6.4,-1.3,10.1c0,4.1,1,7.2,2.9,9.3c2,2.1,4.6,3.2,8,3.2c2.3,0,4.5,-0.6,6.6,-1.7c2.2,-1.2,4,-2.8,5.6,-5Z" class="g4_1" />

</svg>
