<svg id="ba4082ad-a20a-4ebe-975a-ae4d55b4fe38" data-name="Layer 1" xmlns="http://www.w3.org/2000/svg" viewBox="0 0 47.917 30.667"><title>1</title><path id="31b71434-2eee-4a02-aecc-6aae7f2397b2" data-name="&lt;Path&gt;" d="M43.583,12.649h-1V11.762c0-1.266.018-2.531-.012-3.8a0.763,0.763,0,0,0-.346-0.583c-1.156-.045-2.314-0.028-3.537-0.028v5.285h-5.3c0,0.4-.01.666,0,0.93,0.039,0.958.084,1.916,0.128,2.872,0.935,0.033,1.87.076,2.806,0.1,0.781,0.014,1.563,0,2.429,0v5.215h3.824V16.524H47.8V12.649h-4.22Z" fill="#ffffff"/><path id="f4a65ac9-3ea7-4692-9ff3-3e1052c3962d" data-name="&lt;Path&gt;" d="M28.57,12.205c-3.3.043-6.606,0.019-9.909,0.019-0.943,0-1.889-.017-2.831.02a0.65,0.65,0,0,0-.5.345c-0.034,1.9-.024,3.807-0.024,5.813H23.4c-0.108.393-.174,0.677-0.267,0.952-1.242,3.679-5.042,5.5-9.115,4.834A8.918,8.918,0,0,1,6.707,13.6a8.6,8.6,0,0,1,.642-2.036,8.909,8.909,0,0,1,9.9-5.016,8.507,8.507,0,0,1,3.8,1.973c1.471-1.483,2.9-2.924,4.423-4.462-0.1-.077-0.24-0.178-0.371-0.287A14.545,14.545,0,0,0,12.839.4,15.124,15.124,0,0,0,.421,12.758a14.934,14.934,0,0,0,.8,8.017A15.239,15.239,0,0,0,17.154,30.4a13.614,13.614,0,0,0,8.771-4.115c3.484-3.709,4.378-8.2,3.824-13.113A0.928,0.928,0,0,0,28.57,12.205Z" fill="#ffffff"/></svg>