<svg id="62dc32c2-a7ce-4b30-8784-8c344f1e2553" data-name="Layer 1" xmlns="http://www.w3.org/2000/svg" viewBox="0 0 33 32.917"><title>1</title><path d="M11.12,16.5a5.463,5.463,0,1,1,5.463,5.463A5.463,5.463,0,0,1,11.12,16.5m-2.953,0a8.416,8.416,0,1,0,8.416-8.417A8.416,8.416,0,0,0,8.167,16.5m15.2-8.75a1.967,1.967,0,1,0,1.967-1.967,1.967,1.967,0,0,0-1.967,1.967m-13.4,22.09a9.053,9.053,0,0,1-3.043-.564,5.081,5.081,0,0,1-1.885-1.226,5.076,5.076,0,0,1-1.226-1.884,9.072,9.072,0,0,1-.564-3.043c-0.079-1.728-.1-2.247-0.1-6.623s0.017-4.894.1-6.623a9.073,9.073,0,0,1,.564-3.043A5.077,5.077,0,0,1,5.033,4.95,5.073,5.073,0,0,1,6.917,3.724,9.068,9.068,0,0,1,9.96,3.159c1.728-.079,2.247-0.1,6.622-0.1s4.894,0.016,6.623.1a9.073,9.073,0,0,1,3.043.564,5.075,5.075,0,0,1,1.885,1.226A5.076,5.076,0,0,1,29.36,6.833a9.071,9.071,0,0,1,.565,3.043c0.079,1.728.1,2.247,0.1,6.623S30,21.394,29.925,23.122a9.07,9.07,0,0,1-.564,3.043,5.429,5.429,0,0,1-3.11,3.111,9.058,9.058,0,0,1-3.043.564c-1.728.079-2.247,0.1-6.623,0.1s-4.894-.016-6.622-0.1M9.825,0.21A12.013,12.013,0,0,0,5.847.972a8.029,8.029,0,0,0-2.9,1.89,8.022,8.022,0,0,0-1.89,2.9A12.007,12.007,0,0,0,.293,9.743c-0.08,1.748-.1,2.306-0.1,6.757s0.019,5.009.1,6.757a12,12,0,0,0,.762,3.978,8.018,8.018,0,0,0,1.89,2.9,8.033,8.033,0,0,0,2.9,1.89,12.02,12.02,0,0,0,3.978.761c1.748,0.08,2.306.1,6.757,0.1s5.01-.019,6.758-0.1a12.024,12.024,0,0,0,3.979-.762,8.381,8.381,0,0,0,4.793-4.794,12.019,12.019,0,0,0,.762-3.978c0.08-1.748.1-2.306,0.1-6.757s-0.019-5.009-.1-6.757a12.027,12.027,0,0,0-.762-3.978,8.039,8.039,0,0,0-1.89-2.9,8.035,8.035,0,0,0-2.9-1.89A12.018,12.018,0,0,0,23.34.209c-1.748-.08-2.306-0.1-6.758-0.1S11.574,0.13,9.825.21" fill="#2478de"/></svg>