<?xml version="1.0" encoding="utf-8"?>
<!-- Generator: Adobe Illustrator 19.2.0, SVG Export Plug-In . SVG Version: 6.00 Build 0)  -->
<svg version="1.1" id="_x34_cebd13d-f947-4f04-85ee-5156d511f6a3"
	 xmlns="http://www.w3.org/2000/svg" xmlns:xlink="http://www.w3.org/1999/xlink" x="0px" y="0px" viewBox="0 0 331 410"
	 style="enable-background:new 0 0 331 410;" xml:space="preserve">
<style type="text/css">
	.st0{fill:none;stroke:#2377DE;stroke-width:12;stroke-linecap:round;stroke-linejoin:round;stroke-miterlimit:10;}
</style>
<title>Untitled-2</title>
<path class="st0" d="M84.7,108.7c1.4,1.7,4.6,5.2,10,7.3c5.9,2.3,11,1.5,12,1.3c8.7-1.5,13.5-7.8,14.7-9.3"/>
<circle class="st0" cx="102.3" cy="83.9" r="77.4"/>
<path class="st0" d="M166.3,210.7c-17.2-11.8-38.1-21.7-60.7-21.7C46.8,189,7,230,7,284.7h22.7"/>
<line class="st0" x1="54.3" y1="284.3" x2="163" y2="284.3"/>
<path class="st0" d="M250.7,403.3h-12.4c-40.1,0-73-32.8-73-73V227.3c0-40.1,32.8-73,73-73h12.4c40.1,0,73,32.8,73,73v103.1
	C323.7,370.5,290.9,403.3,250.7,403.3z"/>
<line class="st0" x1="244.7" y1="176" x2="244.7" y2="189.3"/>
<path class="st0" d="M245.5,251h-1.6c-7.6,0-13.9-6.2-13.9-13.9v-30c0-7.6,6.2-13.9,13.9-13.9h1.6c7.6,0,13.9,6.2,13.9,13.9v30
	C259.4,244.8,253.1,251,245.5,251z"/>
<line class="st0" x1="244.7" y1="251" x2="244.7" y2="282"/>
<line class="st0" x1="188.4" y1="284.3" x2="301" y2="284.3"/>
</svg>
