<!--?xml version="1.0" encoding="utf-8"?-->
<!-- Generator: Adobe Illustrator 19.2.0, SVG Export Plug-In . SVG Version: 6.00 Build 0)  -->
<svg version="1.1" id="_x36_4ecb3c2-bd0a-43a8-9545-9a7845edea7f" xmlns="http://www.w3.org/2000/svg" xmlns:xlink="http://www.w3.org/1999/xlink" x="0px" y="0px" viewBox="0 0 377.3 341.3" xml:space="preserve">
<style type="text/css">
	.st0{fill:none;stroke:#2377DE;stroke-width:12;stroke-linecap:round;stroke-linejoin:round;stroke-miterlimit:10;}
</style>
<title>Untitled-2</title>
<path class="st0 HbKzsjER_0" d="M371,248L371,6.7L7,6.7L7,334.7L371,334.7L371,270.7"></path>
<path class="st0 HbKzsjER_1" d="M11.7,54.7L370.3,54.7"></path>
<path class="st0 HbKzsjER_2" d="M241,8.7L241,53.3"></path>
<path class="st0 HbKzsjER_3" d="M270.7,30.7L276,30.7"></path>
<path class="st0 HbKzsjER_4" d="M303.5,30.7L308.8,30.7"></path>
<path class="st0 HbKzsjER_5" d="M336.3,30.7L341.7,30.7"></path>
<path class="st0 HbKzsjER_6" width="157.3" height="78" d="M110.1 92.7 L267.4 92.7 L267.4 170.7 L110.1 170.7 Z"></path>
<path class="st0 HbKzsjER_7" d="M135.4,119.3L242.1,119.3"></path>
<path class="st0 HbKzsjER_8" d="M157.1,143.3L220.4,143.3"></path>
<path class="st0 HbKzsjER_9" d="M188.7,172L188.7,253.3"></path>
<path class="st0 HbKzsjER_10" d="M188,211.3L86.7,211.3L86.7,252"></path>
<path class="st0 HbKzsjER_11" d="M212,211.3L290.7,211.3L290.7,252.7"></path>
<path class="st0 HbKzsjER_12" width="78.7" height="44" d="M46.3 253.3 L125 253.3 L125 297.3 L46.3 297.3 Z"></path>
<path class="st0 HbKzsjER_13" width="78.7" height="44" d="M148.8 253.3 L227.5 253.3 L227.5 297.3 L148.8 297.3 Z"></path>
<path class="st0 HbKzsjER_14" width="78.7" height="44" d="M251.3 253.3 L330 253.3 L330 297.3 L251.3 297.3 Z"></path>
<style>.HbKzsjER_0{stroke-dasharray:1362 1364;stroke-dashoffset:1363;animation:HbKzsjER_draw 773ms linear 0ms forwards;}.HbKzsjER_1{stroke-dasharray:359 361;stroke-dashoffset:360;animation:HbKzsjER_draw 204ms linear 773ms forwards;}.HbKzsjER_2{stroke-dasharray:45 47;stroke-dashoffset:46;animation:HbKzsjER_draw 26ms linear 977ms forwards;}.HbKzsjER_3{stroke-dasharray:6 8;stroke-dashoffset:7;animation:HbKzsjER_draw 3ms linear 1003ms forwards;}.HbKzsjER_4{stroke-dasharray:6 8;stroke-dashoffset:7;animation:HbKzsjER_draw 3ms linear 1007ms forwards;}.HbKzsjER_5{stroke-dasharray:6 8;stroke-dashoffset:7;animation:HbKzsjER_draw 3ms linear 1011ms forwards;}.HbKzsjER_6{stroke-dasharray:471 473;stroke-dashoffset:472;animation:HbKzsjER_draw 267ms linear 1015ms forwards;}.HbKzsjER_7{stroke-dasharray:107 109;stroke-dashoffset:108;animation:HbKzsjER_draw 61ms linear 1283ms forwards;}.HbKzsjER_8{stroke-dasharray:64 66;stroke-dashoffset:65;animation:HbKzsjER_draw 36ms linear 1345ms forwards;}.HbKzsjER_9{stroke-dasharray:82 84;stroke-dashoffset:83;animation:HbKzsjER_draw 47ms linear 1381ms forwards;}.HbKzsjER_10{stroke-dasharray:142 144;stroke-dashoffset:143;animation:HbKzsjER_draw 81ms linear 1429ms forwards;}.HbKzsjER_11{stroke-dasharray:121 123;stroke-dashoffset:122;animation:HbKzsjER_draw 69ms linear 1510ms forwards;}.HbKzsjER_12{stroke-dasharray:246 248;stroke-dashoffset:247;animation:HbKzsjER_draw 140ms linear 1579ms forwards;}.HbKzsjER_13{stroke-dasharray:246 248;stroke-dashoffset:247;animation:HbKzsjER_draw 140ms linear 1719ms forwards;}.HbKzsjER_14{stroke-dasharray:246 248;stroke-dashoffset:247;animation:HbKzsjER_draw 140ms linear 1859ms forwards;}@keyframes HbKzsjER_draw{100%{stroke-dashoffset:0;}}@keyframes HbKzsjER_fade{0%{stroke-opacity:1;}93.54838709677419%{stroke-opacity:1;}100%{stroke-opacity:0;}}</style></svg>
