<svg xmlns="http://www.w3.org/2000/svg" width="20" height="1609" viewBox="0 0 20 1609"><title>point</title><path d="M10 521c5.523 0 10 4.477 10 10s-4.477 10-10 10-10-4.477-10-10 4.477-10 10-10z" fill="#2378de"/><path d="M10 1157c5.523 0 10 4.48 10 10s-4.477 10-10 10-10-4.48-10-10 4.477-10 10-10zm-1 443v-196h2v196z" fill="#35b800"/><path d="M10 1589c5.523 0 10 4.48 10 10s-4.477 10-10 10-10-4.48-10-10 4.477-10 10-10z" fill="#35b800"/><path d="M9 1414v-246h2v246z" fill="#2378de"/><path d="M10 1394c5.523 0 10 4.48 10 10s-4.477 10-10 10-10-4.48-10-10 4.477-10 10-10z" fill="#2378de"/><path d="M9 1177V531h2v646z" fill="#35b800"/><path d="M9 541V0h2v541z" fill="#2378de"/></svg>