<svg id="SvgjsSvg1000" xmlns="http://www.w3.org/2000/svg" version="1.1" xmlns:xlink="http://www.w3.org/1999/xlink" xmlns:svgjs="http://svgjs.com/svgjs" width="20" height="1609" viewBox="0 0 20 1609"><title>point</title><desc>Created with Avocode.</desc><defs id="SvgjsDefs1001"></defs><path id="SvgjsPath1007" d="M960 816C965.523 816 970 820.477 970 826C970 831.523 965.523 836 960 836C954.477 836 950 831.523 950 826C950 820.477 954.477 816 960 816Z " fill="#2378de" fill-opacity="1" transform="matrix(1,0,0,1,-950,-295)"></path><path id="SvgjsPath1008" d="M960 1452C965.523 1452 970 1456.48 970 1462C970 1467.52 965.523 1472 960 1472C954.477 1472 950 1467.52 950 1462C950 1456.48 954.477 1452 960 1452Z " fill="#35b800" fill-opacity="1" transform="matrix(1,0,0,1,-950,-295)"></path><path id="SvgjsPath1009" d="M959 1895L959 1699L961 1699L961 1895Z " fill="#35b800" fill-opacity="1" transform="matrix(1,0,0,1,-950,-295)"></path><path id="SvgjsPath1010" d="M960 1884C965.523 1884 970 1888.48 970 1894C970 1899.52 965.523 1904 960 1904C954.477 1904 950 1899.52 950 1894C950 1888.48 954.477 1884 960 1884Z " fill="#35b800" fill-opacity="1" transform="matrix(1,0,0,1,-950,-295)"></path><path id="SvgjsPath1011" d="M959 1709L959 1463L961 1463L961 1709Z " fill="#2378de" fill-opacity="1" transform="matrix(1,0,0,1,-950,-295)"></path><path id="SvgjsPath1012" d="M960 1689C965.523 1689 970 1693.48 970 1699C970 1704.52 965.523 1709 960 1709C954.477 1709 950 1704.52 950 1699C950 1693.48 954.477 1689 960 1689Z " fill="#2378de" fill-opacity="1" transform="matrix(1,0,0,1,-950,-295)"></path><path id="SvgjsPath1013" d="M959 1472L959 826L961 826L961 1472Z " fill="#35b800" fill-opacity="1" transform="matrix(1,0,0,1,-950,-295)"></path><path id="SvgjsPath1014" d="M959 836L959 295L961 295L961 836Z " fill="#2378de" fill-opacity="1" transform="matrix(1,0,0,1,-950,-295)"></path></svg>