<?xml version="1.0" encoding="utf-8"?>
<!-- Generator: Adobe Illustrator 19.2.0, SVG Export Plug-In . SVG Version: 6.00 Build 0)  -->
<svg version="1.1" id="Layer_1" xmlns="http://www.w3.org/2000/svg" xmlns:xlink="http://www.w3.org/1999/xlink" x="0px" y="0px"
	 viewBox="0 0 260.7 324" style="enable-background:new 0 0 260.7 324;" xml:space="preserve">
<style type="text/css">
	.st0{fill:#FFFFFF;}
</style>
<g>
	<g>
		<path class="st0" d="M254.8,51.9c-1.4,0-2.8-0.5-3.9-1.6l-38.9-38.9c-2.1-2.1-2.1-5.6,0-7.8c2.1-2.1,5.6-2.1,7.8,0l38.9,38.9
			c2.1,2.1,2.1,5.6,0,7.8C257.6,51.4,256.2,51.9,254.8,51.9z"/>
	</g>
	<g>
		<path class="st0" d="M215.9,51.9c-1.4,0-2.8-0.5-3.9-1.6c-2.1-2.1-2.1-5.6,0-7.8l38.9-38.9c2.1-2.1,5.6-2.1,7.8,0
			c2.1,2.1,2.1,5.6,0,7.8l-38.9,38.9C218.8,51.4,217.3,51.9,215.9,51.9z"/>
	</g>
</g>
</svg>
