<?xml version="1.0" encoding="utf-8"?>
<!-- Generator: Adobe Illustrator 19.2.0, SVG Export Plug-In . SVG Version: 6.00 Build 0)  -->
<svg version="1.1" id="_x36_4ecb3c2-bd0a-43a8-9545-9a7845edea7f"
	 xmlns="http://www.w3.org/2000/svg" xmlns:xlink="http://www.w3.org/1999/xlink" x="0px" y="0px" viewBox="0 0 377.3 341.3"
	 style="enable-background:new 0 0 377.3 341.3;" xml:space="preserve">
<style type="text/css">
	.st0{fill:none;stroke:#2377DE;stroke-width:12;stroke-linecap:round;stroke-linejoin:round;stroke-miterlimit:10;}
</style>
<title>Untitled-2</title>
<polyline class="st0" points="371,248 371,6.7 7,6.7 7,334.7 371,334.7 371,270.7 "/>
<line class="st0" x1="11.7" y1="54.7" x2="370.3" y2="54.7"/>
<line class="st0" x1="241" y1="8.7" x2="241" y2="53.3"/>
<line class="st0" x1="270.7" y1="30.7" x2="276" y2="30.7"/>
<line class="st0" x1="303.5" y1="30.7" x2="308.8" y2="30.7"/>
<line class="st0" x1="336.3" y1="30.7" x2="341.7" y2="30.7"/>
<rect x="110.1" y="92.7" class="st0" width="157.3" height="78"/>
<line class="st0" x1="135.4" y1="119.3" x2="242.1" y2="119.3"/>
<line class="st0" x1="157.1" y1="143.3" x2="220.4" y2="143.3"/>
<line class="st0" x1="188.7" y1="172" x2="188.7" y2="253.3"/>
<polyline class="st0" points="188,211.3 86.7,211.3 86.7,252 "/>
<polyline class="st0" points="212,211.3 290.7,211.3 290.7,252.7 "/>
<rect x="46.3" y="253.3" class="st0" width="78.7" height="44"/>
<rect x="148.8" y="253.3" class="st0" width="78.7" height="44"/>
<rect x="251.3" y="253.3" class="st0" width="78.7" height="44"/>
</svg>
