<svg id="cca6e09d-cf59-429c-ac99-98028af28e66" data-name="Layer 1" xmlns="http://www.w3.org/2000/svg" viewBox="0 0 402.04 399.037"><title>Untitled-2</title><path d="M220.8,258.355a6,6,0,1,0,0-12H30.891a0.914,0.914,0,0,1-.891-0.89V26.09a0.917,0.917,0,0,1,.891-0.891H320.309a0.916,0.916,0,0,1,.89.891v105.6a6,6,0,0,0,12,0V26.09A12.9,12.9,0,0,0,320.309,13.2H30.891A12.9,12.9,0,0,0,18,26.09V245.465a12.906,12.906,0,0,0,12.891,12.89H139.043V294.59H92.91a6,6,0,1,0,0,12H220.8a6,6,0,0,0,0-12h-8.645V258.355H220.8ZM200.156,294.59H151.043V258.355h49.113V294.59Zm0,0" fill="#2377de"/><path d="M220.8,205.691H48a6,6,0,0,0,0,12H220.8a6,6,0,0,0,0-12h0Zm0,0" fill="#2377de"/><path d="M381.109,149.691H251.691a12.9,12.9,0,0,0-12.89,12.891V376.309a12.9,12.9,0,0,0,12.89,12.89H381.109A12.9,12.9,0,0,0,394,376.309V162.582a12.9,12.9,0,0,0-12.891-12.891h0Zm-130.308,36H382V329.2H250.8V185.691Zm0.89-24H381.109a0.914,0.914,0,0,1,.891.891v11.109H250.8V162.582a0.914,0.914,0,0,1,.89-0.891h0ZM381.109,377.2H251.691a0.913,0.913,0,0,1-.89-0.89V341.2H382v35.11a0.916,0.916,0,0,1-.891.89h0Zm0,0" fill="#2377de"/><path d="M328.4,353.2h-24a6,6,0,0,0,0,12h24a6,6,0,1,0,0-12h0Zm0,0" fill="#2377de"/></svg>