<svg id="4cebd13d-f947-4f04-85ee-5156d511f6a3" data-name="Layer 1" xmlns="http://www.w3.org/2000/svg" viewBox="0 0 402.04 441"><title>Untitled-2</title><path d="M141.387,133.552a27.2,27.2,0,0,0,20.527-9.375,6,6,0,1,0-9.054-7.875,15.161,15.161,0,0,1-22.946,0,6,6,0,1,0-9.054,7.875,27.206,27.206,0,0,0,20.527,9.375h0Zm0,0" fill="#2377de"/><path d="M147.387,179.332a84.6,84.6,0,1,0-12,0M68.758,94.922a72.629,72.629,0,1,1,72.629,72.629A72.712,72.712,0,0,1,68.758,94.922h0Zm0,0" fill="#2377de"/><path d="M283.615,158.079c-62.922,0-85.25,40.9-85.25,75.921V356.555c0,35.024,22.328,75.922,85.25,75.922s85.246-40.9,85.246-75.922V234c0-35.023-22.324-75.921-85.246-75.921h0Zm73.246,198.476c0,7.367-1.414,26.164-14.527,41.547-12.66,14.848-32.414,22.375-58.719,22.375S237.552,412.95,224.9,398.1c-13.113-15.383-14.531-34.18-14.531-41.547V234c0-7.367,1.418-26.164,14.531-41.546,12.656-14.848,32.414-22.375,58.719-22.375s46.059,7.527,58.719,22.375c13.113,15.382,14.527,34.179,14.527,41.546V356.555Zm0,0" fill="#2377de"/><path d="M289.615,289.278v-20.86a21.487,21.487,0,0,0,15.449-20.593V219.348a21.489,21.489,0,0,0-15.449-20.594V188.079a6,6,0,1,0-12,0v10.675a21.488,21.488,0,0,0-15.453,20.594v28.477a21.485,21.485,0,0,0,15.453,20.593v20.86h-49.25a6,6,0,0,0,0,12h110.5a6,6,0,0,0,0-12H289.615Zm-15.453-41.453V219.348a9.451,9.451,0,1,1,18.9,0v28.477a9.451,9.451,0,1,1-18.9,0h0Zm0,0" fill="#2377de"/><path d="M200.365,289.474H92.522a6,6,0,0,0,0,12H200.365v-12Z" fill="#2377de"/><path d="M140.952,205.041a90.038,90.038,0,0,1,59.413,22.327V212.077a102.382,102.382,0,0,0-161.843,83.4,6,6,0,0,0,6,6h24a6,6,0,0,0,0-12h-17.8A90.546,90.546,0,0,1,140.952,205.041Z" fill="#2377de"/></svg>