<svg id="dc0b70fa-6f76-4eba-9e61-564c57d8196d" data-name="Layer 1" xmlns="http://www.w3.org/2000/svg" viewBox="0 0 402.04 366.037"><title>Untitled-2</title><path d="M138.978,218.33H265.1a6,6,0,0,0,6-6V81.783a6,6,0,0,0-6-6H236.04V73.236a34,34,0,1,0-68,0v2.547H138.978a6,6,0,0,0-6,6V212.33a6,6,0,0,0,6,6h0ZM180.04,73.236a22,22,0,1,1,44,0v2.547h-44V73.236ZM144.978,87.783H168.04v10a6,6,0,1,0,12,0v-10h44v10a6,6,0,1,0,12,0v-10H259.1V206.33H144.978V87.783Zm0,0" fill="#2377de"/><path d="M375.767,7.236H28.313A14.288,14.288,0,0,0,14.04,21.509V284.873a14.288,14.288,0,0,0,14.273,14.273H159.36v45.91H102.767a6,6,0,1,0,0,12H301.313a6,6,0,0,0,0-12H244.724v-45.91H375.77a14.287,14.287,0,0,0,14.27-14.273V21.509A14.288,14.288,0,0,0,375.767,7.236h0ZM232.724,345.056H171.36v-45.91h61.364v45.91ZM378.04,284.873a2.3,2.3,0,0,1-2.273,2.273H28.313a2.3,2.3,0,0,1-2.273-2.273V21.509a2.3,2.3,0,0,1,2.273-2.273H375.767a2.3,2.3,0,0,1,2.273,2.273V284.873Zm0,0" fill="#2377de"/><path d="M359.224,238.33H44.856a6,6,0,0,0,0,12H359.22a6,6,0,0,0,0-12h0Zm0,0" fill="#2377de"/></svg>