<svg id="64ecb3c2-bd0a-43a8-9545-9a7845edea7f" data-name="Layer 1" xmlns="http://www.w3.org/2000/svg" viewBox="0 0 402.04 366.037"><title>Untitled-2</title><path d="M383.04,12.362h-364a6,6,0,0,0-6,6v328a6,6,0,0,0,6,6h364a6,6,0,0,0,6-6v-64a6,6,0,1,0-12,0v58h-352v-268h352v186a6,6,0,0,0,12,0v-240a6,6,0,0,0-6-6h0Zm-358,12h222v36h-222v-36Zm234,36v-36h118v36h-118Zm0,0" fill="#2377de"/><path d="M318.239,35.964a6.4,6.4,0,1,0,6.4,6.4,6.406,6.406,0,0,0-6.4-6.4h0Zm0,0" fill="#2377de"/><path d="M285.438,35.964a6.4,6.4,0,1,0,6.4,6.4,6.406,6.406,0,0,0-6.4-6.4h0Zm0,0" fill="#2377de"/><path d="M351.04,35.964a6.4,6.4,0,1,0,6.4,6.4,6.406,6.406,0,0,0-6.4-6.4h0Zm0,0" fill="#2377de"/><path d="M264.575,259.167a6,6,0,0,0-6,6V308.76a6,6,0,0,0,6,6h80.863a6,6,0,0,0,6-6V265.167a6,6,0,0,0-6-6H309.083V223.452a6,6,0,0,0-6-6H225.04a6,6,0,0,0,0,12h72.043v29.715H264.575Zm74.863,43.593H270.575V271.167h68.863V302.76Zm0,0" fill="#2377de"/><path d="M259.579,130.846a6,6,0,0,0-6-6H148.5a6,6,0,0,0,0,12H253.579a6,6,0,0,0,6-6h0Zm0,0" fill="#2377de"/><path d="M237.372,154.846a6,6,0,0,0-6-6H170.708a6,6,0,0,0,0,12h60.664a6,6,0,0,0,6-6h0Zm0,0" fill="#2377de"/><path d="M160.606,259.167a6,6,0,0,0-6,6V308.76a6,6,0,0,0,6,6h80.868a6,6,0,0,0,6-6V265.167a6,6,0,0,0-6-6H207.04V187.729h72.938a6,6,0,0,0,6-6V103.964a6,6,0,0,0-6-6H122.1a6,6,0,0,0-6,6v77.765a6,6,0,0,0,6,6H195.04v29.719H99a6,6,0,0,0-6,6v35.719H56.642a6,6,0,0,0-6,6V308.76a6,6,0,0,0,6,6h80.863a6,6,0,0,0,6-6V265.167a6,6,0,0,0-6-6H105V229.452H195.04v29.715H160.606Zm-32.5-149.2H273.978v65.765H128.1V109.964Zm3.4,192.8H62.642V271.167h68.863V302.76Zm103.969,0H166.606V271.167h68.868V302.76Zm0,0" fill="#2377de"/></svg>