<!--?xml version="1.0" encoding="utf-8"?-->
<!-- Generator: Adobe Illustrator 19.2.0, SVG Export Plug-In . SVG Version: 6.00 Build 0)  -->
<svg version="1.1" id="_x34_cebd13d-f947-4f04-85ee-5156d511f6a3" xmlns="http://www.w3.org/2000/svg" xmlns:xlink="http://www.w3.org/1999/xlink" x="0px" y="0px" viewBox="0 0 331 410" xml:space="preserve">
<style type="text/css">
	.st0{fill:none;stroke:#2377DE;stroke-width:12;stroke-linecap:round;stroke-linejoin:round;stroke-miterlimit:10;}
</style>
<title>Untitled-2</title>
<path class="st0 EalPTzjc_0" d="M84.7,108.7c1.4,1.7,4.6,5.2,10,7.3c5.9,2.3,11,1.5,12,1.3c8.7-1.5,13.5-7.8,14.7-9.3"></path>
<path class="st0 EalPTzjc_1" d="M24.89999999999999,83.9A77.4,77.4 0,1,1 179.7,83.9A77.4,77.4 0,1,1 24.89999999999999,83.9"></path>
<path class="st0 EalPTzjc_2" d="M166.3,210.7c-17.2-11.8-38.1-21.7-60.7-21.7C46.8,189,7,230,7,284.7h22.7"></path>
<path class="st0 EalPTzjc_3" d="M54.3,284.3L163,284.3"></path>
<path class="st0 EalPTzjc_4" d="M250.7,403.3h-12.4c-40.1,0-73-32.8-73-73V227.3c0-40.1,32.8-73,73-73h12.4c40.1,0,73,32.8,73,73v103.1
	C323.7,370.5,290.9,403.3,250.7,403.3z"></path>
<path class="st0 EalPTzjc_5" d="M244.7,176L244.7,189.3"></path>
<path class="st0 EalPTzjc_6" d="M245.5,251h-1.6c-7.6,0-13.9-6.2-13.9-13.9v-30c0-7.6,6.2-13.9,13.9-13.9h1.6c7.6,0,13.9,6.2,13.9,13.9v30
	C259.4,244.8,253.1,251,245.5,251z"></path>
<path class="st0 EalPTzjc_7" d="M244.7,251L244.7,282"></path>
<path class="st0 EalPTzjc_8" d="M188.4,284.3L301,284.3"></path>
<style>.EalPTzjc_0{stroke-dasharray:43 45;stroke-dashoffset:44;animation:EalPTzjc_draw 46ms linear 0ms forwards;}.EalPTzjc_1{stroke-dasharray:487 489;stroke-dashoffset:488;animation:EalPTzjc_draw 516ms linear 46ms forwards;}.EalPTzjc_2{stroke-dasharray:243 245;stroke-dashoffset:244;animation:EalPTzjc_draw 258ms linear 562ms forwards;}.EalPTzjc_3{stroke-dasharray:109 111;stroke-dashoffset:110;animation:EalPTzjc_draw 116ms linear 821ms forwards;}.EalPTzjc_4{stroke-dasharray:690 692;stroke-dashoffset:691;animation:EalPTzjc_draw 731ms linear 937ms forwards;}.EalPTzjc_5{stroke-dasharray:14 16;stroke-dashoffset:15;animation:EalPTzjc_draw 15ms linear 1668ms forwards;}.EalPTzjc_6{stroke-dasharray:151 153;stroke-dashoffset:152;animation:EalPTzjc_draw 160ms linear 1684ms forwards;}.EalPTzjc_7{stroke-dasharray:31 33;stroke-dashoffset:32;animation:EalPTzjc_draw 33ms linear 1845ms forwards;}.EalPTzjc_8{stroke-dasharray:113 115;stroke-dashoffset:114;animation:EalPTzjc_draw 120ms linear 1879ms forwards;}@keyframes EalPTzjc_draw{100%{stroke-dashoffset:0;}}@keyframes EalPTzjc_fade{0%{stroke-opacity:1;}93.54838709677419%{stroke-opacity:1;}100%{stroke-opacity:0;}}</style></svg>
