<!--?xml version="1.0" encoding="utf-8"?-->
<!-- Generator: Adobe Illustrator 19.2.0, SVG Export Plug-In . SVG Version: 6.00 Build 0)  -->
<svg version="1.1" id="c7daea31-31a5-4ad9-806e-fea8cb784794" xmlns="http://www.w3.org/2000/svg" xmlns:xlink="http://www.w3.org/1999/xlink" x="0px" y="0px" viewBox="0 0 376.7 340.7" xml:space="preserve">
<style type="text/css">
	.st0{fill:none;stroke:#2377DE;stroke-width:12;stroke-linecap:round;stroke-linejoin:round;stroke-miterlimit:10;}
</style>
<path class="st0 XxiNInbP_0" d="M370.7,248L370.7,6.7L6.7,6.7L6.7,334.7L370.7,334.7L370.7,270.7"></path>
<title>Untitled-2</title>
<path class="st0 XxiNInbP_1" d="M11.3,54.7L370,54.7"></path>
<path class="st0 XxiNInbP_2" d="M240.7,8.7L240.7,53.3"></path>
<path class="st0 XxiNInbP_3" d="M270.3,30.7L275.7,30.7"></path>
<path class="st0 XxiNInbP_4" d="M303.2,30.7L308.5,30.7"></path>
<path class="st0 XxiNInbP_5" d="M336,30.7L341.3,30.7"></path>
<path class="st0 XxiNInbP_6" d="M71.3,111.3L85.3,158L102.7,128.7L119.3,158L133.3,110"></path>
<path class="st0 XxiNInbP_7" d="M151.7,111.3L165.7,158L183,128.7L199.7,158L213.7,110"></path>
<path class="st0 XxiNInbP_8" d="M232,111.3L246,158L263.3,128.7L280,158L294,110"></path>
<path class="st0 XxiNInbP_9" d="M128,213.9L246.7,213.9"></path>
<path class="st0 XxiNInbP_10" d="M269.3,213.9L294,213.9"></path>
<path class="st0 XxiNInbP_11" d="M128,268.8L246.7,268.8"></path>
<path class="st0 XxiNInbP_12" d="M269.3,268.8L294,268.8"></path>
<path class="st0 XxiNInbP_13" width="33" height="33.3" d="M71.3 196.7 L104.3 196.7 L104.3 230 L71.3 230 Z"></path>
<path class="st0 XxiNInbP_14" width="33" height="33.3" d="M71.3 252.1 L104.3 252.1 L104.3 285.4 L71.3 285.4 Z"></path>
<style>.XxiNInbP_0{stroke-dasharray:1362 1364;stroke-dashoffset:1363;animation:XxiNInbP_draw 955ms linear 0ms forwards;}.XxiNInbP_1{stroke-dasharray:359 361;stroke-dashoffset:360;animation:XxiNInbP_draw 252ms linear 955ms forwards;}.XxiNInbP_2{stroke-dasharray:45 47;stroke-dashoffset:46;animation:XxiNInbP_draw 32ms linear 1207ms forwards;}.XxiNInbP_3{stroke-dasharray:6 8;stroke-dashoffset:7;animation:XxiNInbP_draw 4ms linear 1239ms forwards;}.XxiNInbP_4{stroke-dasharray:6 8;stroke-dashoffset:7;animation:XxiNInbP_draw 4ms linear 1244ms forwards;}.XxiNInbP_5{stroke-dasharray:6 8;stroke-dashoffset:7;animation:XxiNInbP_draw 4ms linear 1249ms forwards;}.XxiNInbP_6{stroke-dasharray:167 169;stroke-dashoffset:168;animation:XxiNInbP_draw 117ms linear 1254ms forwards;}.XxiNInbP_7{stroke-dasharray:167 169;stroke-dashoffset:168;animation:XxiNInbP_draw 117ms linear 1372ms forwards;}.XxiNInbP_8{stroke-dasharray:167 169;stroke-dashoffset:168;animation:XxiNInbP_draw 117ms linear 1489ms forwards;}.XxiNInbP_9{stroke-dasharray:119 121;stroke-dashoffset:120;animation:XxiNInbP_draw 84ms linear 1607ms forwards;}.XxiNInbP_10{stroke-dasharray:25 27;stroke-dashoffset:26;animation:XxiNInbP_draw 18ms linear 1691ms forwards;}.XxiNInbP_11{stroke-dasharray:119 121;stroke-dashoffset:120;animation:XxiNInbP_draw 84ms linear 1709ms forwards;}.XxiNInbP_12{stroke-dasharray:25 27;stroke-dashoffset:26;animation:XxiNInbP_draw 18ms linear 1793ms forwards;}.XxiNInbP_13{stroke-dasharray:133 135;stroke-dashoffset:134;animation:XxiNInbP_draw 93ms linear 1812ms forwards;}.XxiNInbP_14{stroke-dasharray:133 135;stroke-dashoffset:134;animation:XxiNInbP_draw 93ms linear 1906ms forwards;}@keyframes XxiNInbP_draw{100%{stroke-dashoffset:0;}}@keyframes XxiNInbP_fade{0%{stroke-opacity:1;}93.54838709677419%{stroke-opacity:1;}100%{stroke-opacity:0;}}</style></svg>
