<svg id="462c1412-d7cd-4774-b16d-26093e6f3b7d" data-name="Layer 1" xmlns="http://www.w3.org/2000/svg" viewBox="0 0 402.04 366.037"><title>Untitled-2</title><path d="M147.375,160.821a6,6,0,0,0-8.227-2.082l-69.9,41.629a6,6,0,0,0,0,10.312l69.9,41.629A6,6,0,0,0,145.289,242L84.046,205.524l61.243-36.477a6,6,0,0,0,2.086-8.226h0Zm0,0" fill="#2377de"/><path d="M255.675,250.227a5.991,5.991,0,0,0,8.223,2.082l69.9-41.629a6,6,0,0,0,0-10.312l-69.9-41.629a6,6,0,0,0-6.141,10.308L319,205.524,257.757,242a6,6,0,0,0-2.082,8.226h0Zm0,0" fill="#2377de"/><path d="M224.5,160.547l-55.915,83.262a6,6,0,1,0,9.961,6.692l55.915-83.262a6,6,0,0,0-9.961-6.692h0Zm0,0" fill="#2377de"/><path d="M383.523,11.524h-364a6,6,0,0,0-6,6v328a6,6,0,0,0,6,6h364a6,6,0,0,0,6-6v-64a6,6,0,0,0-12,0v58h-352v-268h352v186a6,6,0,1,0,12,0v-240a6,6,0,0,0-6-6h0Zm-358,12h222v36h-222v-36Zm234,36v-36h118v36h-118Zm0,0" fill="#2377de"/><path d="M318.722,35.126a6.4,6.4,0,1,0,6.4,6.4,6.406,6.406,0,0,0-6.4-6.4h0Zm0,0" fill="#2377de"/><path d="M285.921,35.126a6.4,6.4,0,1,0,6.4,6.4,6.406,6.406,0,0,0-6.4-6.4h0Zm0,0" fill="#2377de"/><path d="M351.523,35.126a6.4,6.4,0,1,0,6.4,6.4,6.406,6.406,0,0,0-6.4-6.4h0Zm0,0" fill="#2377de"/></svg>