<?xml version="1.0" encoding="utf-8"?>
<!-- Generator: Adobe Illustrator 19.2.0, SVG Export Plug-In . SVG Version: 6.00 Build 0)  -->
<svg version="1.1" id="c7daea31-31a5-4ad9-806e-fea8cb784794"
	 xmlns="http://www.w3.org/2000/svg" xmlns:xlink="http://www.w3.org/1999/xlink" x="0px" y="0px" viewBox="0 0 376.7 340.7"
	 style="enable-background:new 0 0 376.7 340.7;" xml:space="preserve">
<style type="text/css">
	.st0{fill:none;stroke:#2377DE;stroke-width:12;stroke-linecap:round;stroke-linejoin:round;stroke-miterlimit:10;}
</style>
<polyline class="st0" points="370.7,248 370.7,6.7 6.7,6.7 6.7,334.7 370.7,334.7 370.7,270.7 "/>
<title>Untitled-2</title>
<line class="st0" x1="11.3" y1="54.7" x2="370" y2="54.7"/>
<line class="st0" x1="240.7" y1="8.7" x2="240.7" y2="53.3"/>
<line class="st0" x1="270.3" y1="30.7" x2="275.7" y2="30.7"/>
<line class="st0" x1="303.2" y1="30.7" x2="308.5" y2="30.7"/>
<line class="st0" x1="336" y1="30.7" x2="341.3" y2="30.7"/>
<polyline class="st0" points="71.3,111.3 85.3,158 102.7,128.7 119.3,158 133.3,110 "/>
<polyline class="st0" points="151.7,111.3 165.7,158 183,128.7 199.7,158 213.7,110 "/>
<polyline class="st0" points="232,111.3 246,158 263.3,128.7 280,158 294,110 "/>
<line class="st0" x1="128" y1="213.9" x2="246.7" y2="213.9"/>
<line class="st0" x1="269.3" y1="213.9" x2="294" y2="213.9"/>
<line class="st0" x1="128" y1="268.8" x2="246.7" y2="268.8"/>
<line class="st0" x1="269.3" y1="268.8" x2="294" y2="268.8"/>
<rect x="71.3" y="196.7" class="st0" width="33" height="33.3"/>
<rect x="71.3" y="252.1" class="st0" width="33" height="33.3"/>
</svg>
